<svg xmlns="http://www.w3.org/2000/svg" width="1600" height="1000" viewBox="0 0 1600 1000"><defs><linearGradient id="gg3" x1="100%" y1="49.99999999999999%" x2="0%" y2="50.00000000000001%"><stop offset="0%" stop-color="#3a1f2b" /><stop offset="100%" stop-color="#e0895f" /></linearGradient></defs><rect width="1600" height="1000" fill="url(#gg3)" /><path d="M0,680 C400,650 1200,710 1600,680 L1600,1000 L0,1000 Z" fill="#0a141c" opacity="0.4" /><path d="M0,722 C400,692 1200,752 1600,722 L1600,1000 L0,1000 Z" fill="#0a141c" opacity="0.32" /><path d="M0,764 C400,734 1200,794 1600,764 L1600,1000 L0,1000 Z" fill="#0a141c" opacity="0.24000000000000002" /><circle cx="797.9" cy="18.2" r="1.8" fill="#ffffff" opacity="0.85" /><circle cx="909.6" cy="203.2" r="1.1" fill="#ffffff" opacity="0.88" /><circle cx="1472.5" cy="175.3" r="0.8" fill="#ffffff" opacity="0.53" /><circle cx="587.3" cy="254.8" r="1.4" fill="#ffffff" opacity="0.65" /><circle cx="1281.3" cy="148.0" r="1.5" fill="#ffffff" opacity="0.34" /><circle cx="1098.3" cy="150.4" r="1.8" fill="#ffffff" opacity="0.38" /><circle cx="1211.8" cy="272.2" r="1.1" fill="#ffffff" opacity="0.81" /><circle cx="447.0" cy="38.8" r="1.2" fill="#ffffff" opacity="0.34" /><circle cx="549.7" cy="126.2" r="2.0" fill="#ffffff" opacity="0.32" /><circle cx="374.2" cy="68.6" r="1.2" fill="#ffffff" opacity="0.31" /><circle cx="561.5" cy="94.0" r="0.6" fill="#ffffff" opacity="0.73" /><circle cx="1003.3" cy="227.4" r="1.5" fill="#ffffff" opacity="0.50" /><circle cx="540.1" cy="255.3" r="2.0" fill="#ffffff" opacity="0.89" /><circle cx="972.6" cy="127.6" r="1.0" fill="#ffffff" opacity="0.78" /><circle cx="383.5" cy="51.6" r="1.6" fill="#ffffff" opacity="0.69" /><circle cx="1020.6" cy="152.5" r="1.8" fill="#ffffff" opacity="0.88" /><circle cx="1286.0" cy="167.2" r="0.6" fill="#ffffff" opacity="0.60" /><circle cx="1430.8" cy="125.7" r="2.1" fill="#ffffff" opacity="0.74" /><circle cx="415.9" cy="260.7" r="1.6" fill="#ffffff" opacity="0.48" /><circle cx="1040.9" cy="62.9" r="2.0" fill="#ffffff" opacity="0.33" /><circle cx="396.2" cy="89.5" r="1.7" fill="#ffffff" opacity="0.31" /><circle cx="204.8" cy="27.1" r="1.8" fill="#ffffff" opacity="0.73" /><circle cx="1564.7" cy="189.2" r="1.4" fill="#ffffff" opacity="0.31" /><circle cx="131.8" cy="195.5" r="2.1" fill="#ffffff" opacity="0.73" /></svg>