<svg xmlns="http://www.w3.org/2000/svg" width="1920" height="1080" viewBox="0 0 1920 1080"><defs><linearGradient id="g2" x1="96.98463103929542%" y1="67.10100716628344%" x2="3.0153689607045777%" y2="32.89899283371656%"><stop offset="0%" stop-color="#0b1220" /><stop offset="50%" stop-color="#1b2a3a" /><stop offset="100%" stop-color="#2f4256" /></linearGradient></defs><rect width="1920" height="1080" fill="url(#g2)" /><circle cx="960" cy="432" r="540" fill="#ffffff" opacity="0.04" /><line x1="0" y1="0" x2="0" y2="1080" stroke="#ffffff" stroke-width="1" opacity="0.03" /><line x1="80" y1="0" x2="80" y2="1080" stroke="#ffffff" stroke-width="1" opacity="0.03" /><line x1="160" y1="0" x2="160" y2="1080" stroke="#ffffff" stroke-width="1" opacity="0.03" /><line x1="240" y1="0" x2="240" y2="1080" stroke="#ffffff" stroke-width="1" opacity="0.03" /><line x1="320" y1="0" x2="320" y2="1080" stroke="#ffffff" stroke-width="1" opacity="0.03" /><line x1="400" y1="0" x2="400" y2="1080" stroke="#ffffff" stroke-width="1" opacity="0.03" /><line x1="480" y1="0" x2="480" y2="1080" stroke="#ffffff" stroke-width="1" opacity="0.03" /><line x1="560" y1="0" x2="560" y2="1080" stroke="#ffffff" stroke-width="1" opacity="0.03" /><line x1="640" y1="0" x2="640" y2="1080" stroke="#ffffff" stroke-width="1" opacity="0.03" /><line x1="720" y1="0" x2="720" y2="1080" stroke="#ffffff" stroke-width="1" opacity="0.03" /><line x1="800" y1="0" x2="800" y2="1080" stroke="#ffffff" stroke-width="1" opacity="0.03" /><line x1="880" y1="0" x2="880" y2="1080" stroke="#ffffff" stroke-width="1" opacity="0.03" /><line x1="960" y1="0" x2="960" y2="1080" stroke="#ffffff" stroke-width="1" opacity="0.03" /><line x1="1040" y1="0" x2="1040" y2="1080" stroke="#ffffff" stroke-width="1" opacity="0.03" /><line x1="1120" y1="0" x2="1120" y2="1080" stroke="#ffffff" stroke-width="1" opacity="0.03" /><line x1="1200" y1="0" x2="1200" y2="1080" stroke="#ffffff" stroke-width="1" opacity="0.03" /><line x1="1280" y1="0" x2="1280" y2="1080" stroke="#ffffff" stroke-width="1" opacity="0.03" /><line x1="1360" y1="0" x2="1360" y2="1080" stroke="#ffffff" stroke-width="1" opacity="0.03" /><line x1="1440" y1="0" x2="1440" y2="1080" stroke="#ffffff" stroke-width="1" opacity="0.03" /><line x1="1520" y1="0" x2="1520" y2="1080" stroke="#ffffff" stroke-width="1" opacity="0.03" /><line x1="1600" y1="0" x2="1600" y2="1080" stroke="#ffffff" stroke-width="1" opacity="0.03" /><line x1="1680" y1="0" x2="1680" y2="1080" stroke="#ffffff" stroke-width="1" opacity="0.03" /><line x1="1760" y1="0" x2="1760" y2="1080" stroke="#ffffff" stroke-width="1" opacity="0.03" /><line x1="1840" y1="0" x2="1840" y2="1080" stroke="#ffffff" stroke-width="1" opacity="0.03" /><line x1="1920" y1="0" x2="1920" y2="1080" stroke="#ffffff" stroke-width="1" opacity="0.03" /><line x1="0" y1="0" x2="1920" y2="0" stroke="#ffffff" stroke-width="1" opacity="0.03" /><line x1="0" y1="80" x2="1920" y2="80" stroke="#ffffff" stroke-width="1" opacity="0.03" /><line x1="0" y1="160" x2="1920" y2="160" stroke="#ffffff" stroke-width="1" opacity="0.03" /><line x1="0" y1="240" x2="1920" y2="240" stroke="#ffffff" stroke-width="1" opacity="0.03" /><line x1="0" y1="320" x2="1920" y2="320" stroke="#ffffff" stroke-width="1" opacity="0.03" /><line x1="0" y1="400" x2="1920" y2="400" stroke="#ffffff" stroke-width="1" opacity="0.03" /><line x1="0" y1="480" x2="1920" y2="480" stroke="#ffffff" stroke-width="1" opacity="0.03" /><line x1="0" y1="560" x2="1920" y2="560" stroke="#ffffff" stroke-width="1" opacity="0.03" /><line x1="0" y1="640" x2="1920" y2="640" stroke="#ffffff" stroke-width="1" opacity="0.03" /><line x1="0" y1="720" x2="1920" y2="720" stroke="#ffffff" stroke-width="1" opacity="0.03" /><line x1="0" y1="800" x2="1920" y2="800" stroke="#ffffff" stroke-width="1" opacity="0.03" /><line x1="0" y1="880" x2="1920" y2="880" stroke="#ffffff" stroke-width="1" opacity="0.03" /><line x1="0" y1="960" x2="1920" y2="960" stroke="#ffffff" stroke-width="1" opacity="0.03" /><line x1="0" y1="1040" x2="1920" y2="1040" stroke="#ffffff" stroke-width="1" opacity="0.03" /></svg>